<?xml version="1.0" standalone="no"?>
<!DOCTYPE svg PUBLIC "-//W3C//DTD SVG 20010904//EN"
 "http://www.w3.org/TR/2001/REC-SVG-20010904/DTD/svg10.dtd">
<svg version="1.0" xmlns="http://www.w3.org/2000/svg"
 width="410.000000pt" height="91.000000pt" viewBox="0 0 410.000000 91.000000"
 preserveAspectRatio="xMidYMid meet">

<g transform="translate(0.000000,91.000000) scale(0.100000,-0.100000)"
fill="#000000" stroke="none">
<path d="M1550 793 c-107 -18 -191 -65 -269 -149 -167 -183 -181 -396 -31
-478 176 -96 389 12 460 233 19 59 22 87 18 164 -6 138 -33 170 -111 131 -44
-23 -77 -54 -77 -75 0 -9 12 -40 26 -68 54 -104 38 -205 -45 -292 -38 -39 -54
-49 -80 -49 -65 0 -97 40 -111 139 -23 166 65 324 206 371 70 24 108 55 84 70
-15 10 -27 10 -70 3z"/>
<path d="M3130 783 c-138 -48 -278 -196 -331 -350 -48 -141 5 -250 139 -289
68 -20 134 -10 249 38 76 31 119 70 129 116 3 15 7 33 10 40 6 19 -5 15 -108
-37 -125 -64 -162 -72 -194 -39 -14 13 -27 41 -31 61 l-6 37 112 0 112 0 46
44 c74 69 63 76 -112 76 -114 0 -145 3 -145 13 0 8 14 41 30 75 32 63 141 176
164 169 30 -10 -2 -144 -44 -182 -28 -26 -25 -45 8 -45 59 1 152 64 173 118
27 69 -9 142 -79 162 -49 13 -68 12 -122 -7z"/>
<path d="M387 779 c-16 -9 -16 -12 -2 -31 13 -20 8 -35 -86 -219 -56 -108
-127 -238 -160 -289 -32 -50 -59 -93 -59 -96 0 -12 69 -2 100 14 53 29 100 98
175 262 68 148 84 166 85 94 0 -54 29 -201 51 -259 37 -100 93 -141 131 -97 8
9 55 95 103 190 48 94 90 172 95 172 4 0 10 -46 13 -102 8 -127 19 -169 59
-214 58 -66 115 -80 174 -43 56 34 59 51 19 99 -59 71 -84 192 -85 403 l0 127
-47 0 c-100 0 -124 -28 -239 -278 -30 -64 -58 -118 -63 -120 -13 -4 -21 22
-47 170 -26 151 -45 201 -81 217 -30 14 -112 14 -136 0z"/>
<path d="M2338 780 c-48 -14 -89 -44 -96 -70 -15 -55 -6 -303 16 -403 38 -178
63 -201 165 -154 45 21 61 36 102 98 61 92 146 272 174 364 24 81 31 156 15
162 -16 5 -109 -82 -122 -114 -6 -16 -18 -57 -27 -93 -29 -117 -95 -271 -128
-299 -25 -20 -31 35 -32 284 0 223 -1 230 -20 232 -11 1 -32 -2 -47 -7z"/>
<path d="M3567 770 c-64 -11 -97 -34 -97 -66 0 -24 3 -26 36 -22 43 5 47 25
-41 -229 -71 -205 -90 -298 -62 -309 22 -8 82 13 116 41 34 30 45 57 121 314
33 113 61 206 63 207 1 2 16 -4 33 -12 54 -26 69 -98 39 -172 -20 -47 -50 -79
-97 -103 -21 -11 -38 -26 -38 -34 0 -23 46 -120 80 -170 33 -48 92 -85 136
-85 33 0 80 49 93 98 6 20 9 36 8 36 -1 1 -28 14 -60 30 -52 26 -107 75 -107
95 0 4 18 16 40 26 79 36 130 124 116 200 -9 49 -65 108 -126 134 -57 25 -178
35 -253 21z"/>
<path d="M1920 743 c-64 -32 -100 -85 -100 -146 0 -62 40 -116 86 -117 19 0
21 4 14 39 -8 45 1 116 19 149 9 18 16 20 30 12 25 -13 31 -32 31 -99 0 -71
-34 -143 -114 -246 -31 -38 -68 -87 -83 -109 l-27 -38 22 -19 c31 -25 124 -42
186 -34 65 8 107 32 146 86 39 54 39 73 2 64 -34 -7 -161 -10 -167 -3 -3 3 23
39 57 80 158 190 185 303 91 375 -52 40 -123 42 -193 6z"/>
</g>
</svg>
