<?xml version="1.0" standalone="no"?>
<!DOCTYPE svg PUBLIC "-//W3C//DTD SVG 20010904//EN"
 "http://www.w3.org/TR/2001/REC-SVG-20010904/DTD/svg10.dtd">
<svg version="1.0" xmlns="http://www.w3.org/2000/svg"
 width="384.000000pt" height="84.000000pt" viewBox="0 0 384.000000 84.000000"
 preserveAspectRatio="xMidYMid meet">

<g transform="translate(0.000000,84.000000) scale(0.100000,-0.100000)"
fill="#000000" stroke="none">
<path d="M185 761 c-48 -22 -69 -44 -90 -94 -12 -30 -15 -86 -15 -302 l0 -265
95 0 95 0 0 228 c0 239 6 273 44 259 14 -6 16 -33 16 -247 l0 -240 100 0 100
0 2 243 c3 234 4 242 23 242 19 0 20 -8 23 -242 l2 -243 101 0 100 0 -3 272
c-3 270 -3 273 -28 317 -32 57 -67 82 -123 88 -72 8 -114 -4 -161 -47 l-43
-39 -20 28 c-44 59 -140 78 -218 42z"/>
<path d="M1124 771 c-52 -13 -134 -63 -171 -104 -92 -102 -115 -251 -59 -374
32 -69 96 -137 167 -175 38 -20 58 -23 149 -23 124 0 168 17 244 93 61 61 95
131 102 213 14 147 -70 292 -205 352 -50 22 -173 32 -227 18z m139 -195 c73
-30 110 -112 87 -189 -31 -105 -160 -142 -236 -67 -61 59 -68 150 -17 211 46
55 105 71 166 45z"/>
<path d="M1775 762 c-149 -72 -182 -267 -64 -379 l34 -32 42 75 c35 62 41 80
32 96 -13 25 12 68 41 68 20 0 50 -25 50 -42 0 -6 -51 -106 -112 -222 -62
-116 -114 -214 -116 -218 -2 -4 93 -8 212 -8 l216 0 0 95 0 95 -55 0 c-30 0
-55 2 -55 4 0 2 21 48 47 102 40 81 48 108 48 154 0 76 -35 143 -99 188 -40
30 -57 35 -114 39 -52 3 -76 -1 -107 -15z"/>
<path d="M2138 727 c129 -322 268 -657 272 -657 4 0 93 214 277 668 l13 32
-109 0 -109 0 -35 -102 c-19 -58 -37 -96 -40 -88 -3 8 -18 54 -33 103 l-26 87
-114 0 -114 0 18 -43z"/>
<path d="M2919 760 c-103 -10 -160 -54 -179 -136 -12 -51 -12 -327 0 -378 12
-53 38 -86 91 -116 38 -21 60 -25 161 -28 l118 -4 0 96 0 96 -90 0 c-75 0 -92
3 -97 16 -14 36 10 49 96 52 l81 3 0 74 0 75 -79 0 c-63 0 -80 3 -85 16 -8 21
-8 20 10 38 11 12 36 16 90 16 l74 0 0 95 0 95 -62 -1 c-35 -1 -93 -5 -129 -9z"/>
<path d="M3230 435 l0 -335 95 0 95 0 0 245 0 245 29 0 c54 0 81 -16 81 -49 0
-32 -12 -45 -54 -55 l-29 -7 8 -90 c5 -75 13 -104 50 -187 l44 -97 105 -3 105
-3 -55 128 c-30 70 -54 135 -54 144 0 9 10 24 21 35 56 49 74 155 40 230 -22
49 -83 101 -131 113 -19 5 -106 12 -192 15 l-158 6 0 -335z"/>
</g>
</svg>
